<?xml version="1.0" encoding="UTF-8" standalone="no"?><!DOCTYPE svg PUBLIC "-//W3C//DTD SVG 1.1//EN" "http://www.w3.org/Graphics/SVG/1.1/DTD/svg11.dtd"><svg width="100%" height="100%" viewBox="0 0 1024 1026" version="1.1" xmlns="http://www.w3.org/2000/svg" xmlns:xlink="http://www.w3.org/1999/xlink" xml:space="preserve" xmlns:serif="http://www.serif.com/" style="fill-rule:evenodd;clip-rule:evenodd;stroke-linejoin:round;stroke-miterlimit:2;"><path d="M446.392,44.69c1.128,-0.133 2.264,-0.192 3.4,-0.177c10.759,0.047 19.463,11.704 26.652,18.912l28.724,28.705c8.909,-8.444 19.305,-18.666 27.808,-27.431c20.419,-21.05 25.8,-27.547 52.857,-9.868c21.327,14.186 39.969,32.045 55.056,52.745c40.128,54.299 58.842,125.1 48.816,192.039c2.846,-1.259 5.708,-2.48 8.586,-3.665c81.284,-33.139 179.047,-31.705 251.827,21.541c5.84,4.356 12.702,9.644 15.359,16.712c4.033,10.731 -4.441,25.007 -8.895,34.801l-16.12,35.317c15.387,8.043 34.894,15.177 50.388,23.863c4.347,2.349 10.6,7.604 11.06,12.966c2.7,31.445 -16.217,74.716 -32.248,99.415c-33.217,51.175 -82.243,91.214 -141.907,104.58c44.521,70.918 61.812,154.757 30.041,234.628c-8.093,20.346 -24.642,14.611 -42.072,12.357c-12.885,-1.605 -25.756,-3.321 -38.611,-5.146l-3.439,36.783c-2.366,24.523 -0.52,36.522 -29.486,39.76c-69.592,7.782 -135.338,-15.367 -189.807,-58.152c-19.973,-16.08 -36.74,-34.08 -49.13,-56.672c-3.986,6.757 -7.407,12.45 -12.22,18.743c-38.191,49.937 -103.887,86.409 -165.964,95.17c-24.698,2.218 -58.399,6.001 -80.91,-5.562c-7.006,-3.598 -8.061,-20.787 -8.806,-27.733c-1.502,-14 -2.402,-28.442 -4.035,-42.537c-19.315,3.313 -41.472,6.015 -61.094,7.876c-8.604,0.3 -15.299,-5.002 -18.473,-12.489c-32.861,-77.515 -16.52,-169.821 29.839,-237.477c-5.087,-0.814 -10.117,-1.954 -15.058,-3.412c-57.046,-16.548 -106.516,-61.785 -134.78,-113.221c-10.085,-18.354 -30.753,-68.407 -24.403,-88.439c1.07,-3.376 2.726,-5.865 5.45,-8.126c5.832,-4.842 13.885,-7.774 20.73,-10.972c11.52,-5.381 23.24,-10.483 34.573,-16.242c-8.122,-15.653 -14.551,-33.365 -22.07,-49.431c-5.388,-11.511 -5.306,-22.16 5.242,-30.939c57.895,-48.187 141.071,-60.216 213.031,-43.117c19.073,4.538 37.219,11.6 54.896,19.429c-14.762,-86.703 24.624,-189.285 96.857,-240.667c9.627,-6.848 16.737,-11.845 28.336,-14.867" style="fill:#ff5ba0;fill-rule:nonzero;"/><path d="M62.354,341.076c16.109,-17.652 53.858,-34.538 76.866,-40.906c53.004,-14.315 109.302,-10.516 159.902,10.791c8.855,3.626 18.918,8.061 27.216,12.768c18.44,56.165 47.107,91.131 86.422,134.443c5.275,-5.191 9.028,-7.736 15.615,-10.914c2.868,-0.718 9.757,-2.005 11.874,-3.378c-4.759,-8.867 -9.389,-17.8 -13.888,-26.801c3.379,-0.352 6.532,-1.872 8.911,-4.297c4.004,6.988 7.946,14.01 11.827,21.067c0.967,1.748 4.656,8.691 5.657,9.888c1.378,1.103 0.621,0.8 2.326,1.003c2.65,-1.709 6.311,-8.582 8.734,-11.046c10.298,-10.47 20.601,-14.652 34.608,-15.928l0.193,-29.693c3.179,1.154 6.663,1.16 9.846,0.017l0.581,0.397c0.937,3.006 0.395,25.163 0.454,30.075c15.085,1.887 26.401,11.85 35.03,23.577c1.591,2.162 2.418,3.862 4.718,1.255c3.466,-6 15.78,-27.64 19.726,-32.159l0.366,0.633c4.542,4.124 5.721,4.877 12.051,5.022l2.136,0.058c1.479,-0.525 2.955,-1.131 4.416,-1.709c-0.756,2.122 -7.173,11.298 -8.836,13.786c-3.69,5.415 -7.156,10.979 -10.389,16.679c20.34,6.281 32.838,22.584 32.32,44.164c3.565,3.788 4.936,5.638 7.327,10.314c1.837,4.887 2.28,6.958 2.377,12.195c-0.675,10.101 -3.617,16.285 -11.262,23.001l0.221,0.686c1.189,3.78 1.259,10.965 4.88,11.718l-1.449,0.37c-0.791,2.314 -2.011,13.52 -3.041,17.904c15.181,1.886 29.989,2.846 45.195,5.357c58.902,9.726 122.04,27.967 161.019,76.416c36.405,46.33 55.502,115.513 47.783,173.866c-1.714,12.957 -8.062,44.479 -15.453,54.542c-6.015,0.037 -14.271,-1.292 -20.389,-2.125l-30.592,-4.251c-7.218,-1.021 -19.534,-4.299 -25.009,1.35c-0.593,0.612 -1.165,1.244 -1.714,1.896c-1.458,7.054 -1.659,14.158 -2.527,21.242c-1.93,15.759 -2.693,33.19 -5.026,48.756c-12.726,3.894 -27.403,4.432 -40.889,3.967c-71.56,-2.467 -146.853,-40.354 -187.444,-99.998c-3.388,-4.977 -6.882,-13.246 -9.487,-18.824c20.374,-53.206 21.18,-105.927 13.865,-162.063c-2.142,-16.436 -5.493,-29.396 -8.337,-45.159c-4.397,2.031 -7.815,2.924 -12.57,3.97c0.027,13.166 -0.225,23.654 1.32,36.767c-0.467,1.065 -0.608,1.418 -1.192,2.424c-4.032,1.007 -5.148,-0.532 -10.681,0.633l-0.079,-39.502c-12.506,-0.811 -24.167,-5.822 -32.65,-15.161c-3.381,-3.722 -5.888,-8.539 -8.93,-12.5l-0.934,0.278c-2.829,4.375 -26.456,40.462 -28.061,41.328c-1.909,-2.824 -4.753,-4.888 -8.03,-5.828c7.657,-12.01 15.918,-23.369 23.374,-35.644c-17.369,-2.749 -27.627,-8.001 -36.953,-23.39c-1.97,-3.702 -3.054,-6.933 -4.21,-10.927c-2.773,0.983 -19.823,8.568 -20.607,10.163c-0.874,7.305 -7.14,12.866 -14.497,12.866c-3.745,0 -7.351,-1.441 -10.064,-4.023c-40.683,21.442 -82.95,39.165 -128.971,44.521c-99.726,11.607 -191.872,-87.338 -200.855,-181.713c13.727,-7.819 29.239,-13.597 43.358,-20.625c7.71,-3.837 26.16,-8 20.976,-19.621c-9.443,-21.164 -20.3,-42.293 -28.474,-63.968" style="fill:#ff5ba0;fill-rule:nonzero;"/><path d="M599.478,535.378c-4.24,2.827 -7.321,4.492 -12.409,5.543c-8.052,1.606 -16.421,-0.096 -23.205,-4.72c-6.443,-4.311 -10.846,-11.08 -12.176,-18.717c-1.501,-7.983 0.346,-16.243 5.103,-22.827c10.954,-15.291 29.943,-15.636 44.245,-4.789c3.565,3.788 4.936,5.638 7.327,10.314c1.837,4.887 2.28,6.958 2.377,12.195c-0.675,10.101 -3.617,16.285 -11.262,23.001" style="fill:#2c2221;fill-rule:nonzero;"/><path d="M568.033,493.746c0.745,-0.201 1.514,-0.302 2.285,-0.302c4.822,-0 8.79,3.968 8.79,8.79c0,4.047 -2.795,7.597 -6.73,8.545c-0.674,0.163 -1.366,0.245 -2.06,0.245c-4.822,-0 -8.79,-3.968 -8.79,-8.79c0,-3.962 2.679,-7.458 6.505,-8.488" style="fill:#ff5ba0;fill-rule:nonzero;"/><path d="M356.32,582.482c-2.895,-2.755 -4.535,-6.581 -4.535,-10.577c-0,-8.009 6.591,-14.6 14.6,-14.6c3.746,-0 7.352,1.442 10.066,4.024c2.895,2.755 4.535,6.581 4.535,10.576c0,8.01 -6.591,14.601 -14.601,14.601c-3.745,0 -7.351,-1.442 -10.065,-4.024" style="fill:#fff;fill-rule:nonzero;"/><path d="M587.941,415.239c-0.756,2.122 -7.173,11.298 -8.836,13.786c-3.69,5.415 -7.156,10.979 -10.389,16.679l-3.539,-1.22c4.702,-7.849 8.941,-18.271 13.739,-26.263c0.576,-0.959 3.241,-1.065 4.609,-1.273c1.479,-0.525 2.955,-1.131 4.416,-1.709" style="fill:#ff5ba0;fill-rule:nonzero;"/><path d="M568.972,411.235l0.366,0.633c-0.533,2.963 -13.545,26.631 -15.789,31.31c-1.675,0.308 -2.652,0.644 -4.303,0.216c3.466,-6 15.78,-27.64 19.726,-32.159" style="fill:#ff5ba0;fill-rule:nonzero;"/><path d="M422.167,482.544c1.508,-0.234 3.031,-0.351 4.556,-0.351c16.314,-0 29.738,13.424 29.738,29.738c0,14.85 -11.123,27.538 -25.845,29.482c-16.142,2.11 -30.98,-9.149 -33.293,-25.263c-2.313,-16.114 8.761,-31.092 24.844,-33.606" style="fill:#2c2221;fill-rule:nonzero;"/><path d="M414.049,493.718c4.648,-0.993 9.303,1.961 10.382,6.59c0.152,0.653 0.229,1.322 0.229,1.993c0,4.815 -3.962,8.777 -8.777,8.777c-4.815,0 -8.777,-3.962 -8.777,-8.777c0,-4.125 2.909,-7.721 6.943,-8.583" style="fill:#ff5ba0;fill-rule:nonzero;"/><path d="M502.512,545.524c4.442,0.294 6.356,1.721 7.688,6.209c2.251,7.582 6.675,11.692 15.103,9.767c5.184,-1.185 6.78,-7.594 8.915,-11.796c1.376,-3.621 5.867,-4.618 8.235,-1.653c8.885,11.129 -9.437,26.824 -20.894,25.223c-9.379,-1.31 -11.93,-2.343 -17.707,-8.374c-2.526,1.733 -4.45,4.547 -7.496,5.971c-12.011,5.572 -26.225,1.62 -32.084,-10.705c-2.376,-4.998 -3.207,-10.283 2.588,-13.182c5.206,-2.387 7.182,4.407 8.805,7.915c2.42,5.555 6.069,8.156 12.265,7.018c10.147,-1.863 6.635,-12.369 14.582,-16.393" style="fill:#2c2221;fill-rule:nonzero;"/><path d="M637.849,579.44c7.776,-2.105 15.788,2.489 17.899,10.264c2.111,7.775 -2.475,15.79 -10.248,17.908c-7.783,2.121 -15.811,-2.472 -17.925,-10.257c-2.114,-7.785 2.487,-15.808 10.274,-17.915" style="fill:#fff;fill-rule:nonzero;"/><path d="M588.597,633.165c1.419,-0.448 2.898,-0.676 4.386,-0.676c7.987,-0 14.559,6.572 14.559,14.559c0,6.452 -4.29,12.171 -10.485,13.977c-1.324,0.386 -2.695,0.582 -4.074,0.582c-7.987,-0 -14.559,-6.573 -14.559,-14.559c0,-6.334 4.134,-11.975 10.173,-13.883" style="fill:#fff;fill-rule:nonzero;"/><path d="M344.607,472.697c1.189,-0.307 2.413,-0.463 3.641,-0.463c7.984,0 14.553,6.57 14.553,14.553c0,7.984 -6.569,14.553 -14.553,14.553c-6.7,0 -12.576,-4.627 -14.147,-11.14c-1.864,-7.724 2.813,-15.516 10.506,-17.503" style="fill:#fff;fill-rule:nonzero;"/><path d="M405.698,574.403c9.326,15.389 19.584,20.641 36.953,23.39c-7.456,12.275 -15.717,23.634 -23.374,35.644c3.278,0.94 6.12,3.003 8.03,5.828c1.605,-0.866 25.232,-36.953 28.061,-41.328l0.934,-0.278c3.042,3.961 5.549,8.778 8.93,12.5c8.483,9.339 20.144,14.35 32.65,15.161l0.079,39.502c5.533,-1.165 6.649,0.374 10.681,-0.633c0.584,-1.006 0.725,-1.359 1.192,-2.424c0.45,8.749 15.917,12.581 3.436,27.824c4.052,53.288 -0.074,112.052 -29.365,159.041c-15.88,25.475 -44.994,48.761 -70.567,64.032c-42.457,25.355 -106.872,43.21 -155.957,30.365c-2.296,-14.764 -3.235,-30.937 -4.969,-45.781c-3.394,-29.046 2.28,-31.935 -28.843,-27.458l-31.229,4.432c-4.649,0.655 -16.767,3.068 -20.52,1.419c-7.491,-7.953 -14.6,-47.379 -15.971,-59.8c-6.286,-56.964 13.853,-125.099 50.054,-169.584c67.844,0.826 144.474,-34.331 199.795,-71.852" style="fill:#ff5ba0;fill-rule:nonzero;"/><path d="M497.961,664.822c5.533,-1.165 6.649,0.374 10.681,-0.633c0.584,-1.006 0.725,-1.359 1.192,-2.424c0.45,8.749 15.917,12.581 3.436,27.824l-0.486,0.29c-4.027,2.46 -7.767,3.991 -12.642,3.091c-3.878,-0.686 -7.297,-2.963 -9.426,-6.276c-2.227,-3.503 -2.878,-7.788 -1.79,-11.794c1.45,-5.252 4.594,-7.669 9.035,-10.078" style="fill:#fff;fill-rule:nonzero;"/><path d="M427.307,639.265c1.623,2.401 2.49,5.234 2.49,8.132c0,7.966 -6.555,14.522 -14.522,14.522c-4.819,-0 -9.334,-2.399 -12.032,-6.391c-1.623,-2.401 -2.49,-5.234 -2.49,-8.131c-0,-7.967 6.555,-14.523 14.522,-14.523c4.819,0 9.334,2.399 12.032,6.391" style="fill:#fff;fill-rule:nonzero;"/><path d="M449.133,62.744c4.345,3.683 7.939,7.318 11.95,11.33c12.297,12.304 24.335,24.928 37.004,36.841c9.793,9.209 18.067,-4.417 24.643,-10.361c9.094,-9.069 18.213,-18.125 27.248,-27.252c3.741,-3.78 7.23,-7.437 11.672,-10.42c6.943,2.348 14.61,7.399 20.452,11.74c70.514,52.411 105.573,150.248 86.882,235.515c-6.473,4.222 -12.899,8.019 -19.199,12.537c-26.851,19.256 -45.192,39.831 -65.335,65.437c7.547,3.523 11.301,8.545 10.48,17.105c-2.075,4.879 -2.453,6.889 -6.989,10.023c-1.461,0.578 -2.937,1.184 -4.416,1.709l-2.136,-0.058c-6.33,-0.145 -7.509,-0.898 -12.051,-5.022l-0.366,-0.633c-3.946,4.519 -16.26,26.159 -19.726,32.159c-2.3,2.607 -3.127,0.907 -4.718,-1.255c-8.629,-11.727 -19.945,-21.69 -35.03,-23.577c-0.059,-4.912 0.483,-27.069 -0.454,-30.075l-0.581,-0.397c-3.183,1.143 -6.667,1.137 -9.846,-0.017l-0.193,29.693c-14.007,1.276 -24.31,5.458 -34.608,15.928c-2.423,2.464 -6.084,9.337 -8.734,11.046c-1.705,-0.203 -0.948,0.1 -2.326,-1.003c-1.001,-1.197 -4.69,-8.14 -5.657,-9.888c-3.881,-7.057 -7.823,-14.079 -11.827,-21.067c-2.379,2.425 -5.532,3.945 -8.911,4.297c4.499,9.001 9.129,17.935 13.888,26.801c-2.117,1.373 -9.006,2.66 -11.874,3.378c-9.906,-11.375 -20.21,-21.818 -29.72,-33.638c-19.033,-23.654 -35.557,-47.957 -47.462,-75.942c-22.42,-52.699 -17.34,-114.339 4.026,-166.698c13.874,-34.819 36.18,-65.653 64.908,-89.726c8.881,-7.299 18.374,-14.033 29.006,-18.51" style="fill:#ff5ba0;fill-rule:nonzero;"/><path d="M426.361,417.079c-7.028,0.732 -13.629,-3.739 -15.558,-10.537c-0.368,-1.297 -0.555,-2.639 -0.555,-3.987c0,-8.01 6.592,-14.602 14.602,-14.602c8.011,0 14.602,6.592 14.602,14.602c0,7.442 -5.689,13.754 -13.091,14.524" style="fill:#fff;fill-rule:nonzero;"/><path d="M568.972,411.235c-2.029,-3.528 -3.184,-6.328 -2.746,-10.508c0.406,-3.83 2.364,-7.331 5.415,-9.682c4.27,-3.311 7.849,-3.47 12.809,-2.934c7.547,3.523 11.301,8.545 10.48,17.105c-2.075,4.879 -2.453,6.889 -6.989,10.023c-1.461,0.578 -2.937,1.184 -4.416,1.709l-2.136,-0.058c-6.33,-0.145 -7.509,-0.898 -12.051,-5.022l-0.366,-0.633Z" style="fill:#fff;fill-rule:nonzero;"/><path d="M498.617,388.073c-5.749,-2.06 -9.607,-7.541 -9.607,-13.647c-0,-7.953 6.544,-14.497 14.497,-14.497c1.708,-0 3.402,0.301 5.005,0.891c5.689,2.093 9.492,7.543 9.492,13.606c-0,7.952 -6.544,14.497 -14.497,14.497c-1.667,-0 -3.321,-0.288 -4.89,-0.85" style="fill:#fff;fill-rule:nonzero;"/><path d="M594.93,405.216l0.774,0.087c37.498,-48.055 71.002,-80.649 130.597,-99.828c16.584,-5.442 33.652,-9.278 50.97,-11.455c57.301,-7.035 117.251,4.721 164.04,40.155c2.69,2.038 4.965,4.062 7.331,6.457c-7.6,21.699 -20.081,43.279 -28.818,64.642c-2.165,5.295 -0.782,8.89 4.193,11.792c5.641,3.077 11.75,5.584 17.63,8.227l27.227,12.539c4.296,1.975 11.269,5.059 15.033,7.755c-0.044,9.808 -1.841,18.709 -4.321,28.116c-9.925,37.659 -31.637,71.758 -59.298,98.873c-22.835,22.385 -50.123,41.002 -80.873,50.382c-7.965,2.43 -16.896,4.897 -25.201,5.452c-54.854,-59.659 -132.993,-72.289 -209.635,-80.628c-3.621,-0.753 -3.691,-7.938 -4.88,-11.718l-0.221,-0.686c7.645,-6.716 10.587,-12.9 11.262,-23.001c-0.097,-5.237 -0.54,-7.308 -2.377,-12.195c-2.391,-4.676 -3.762,-6.526 -7.327,-10.314c0.518,-21.58 -11.98,-37.883 -32.32,-44.164c3.233,-5.7 6.699,-11.264 10.389,-16.679c1.663,-2.488 8.08,-11.664 8.836,-13.786c4.536,-3.134 4.914,-5.144 6.989,-10.023" style="fill:#ff5ba0;fill-rule:nonzero;"/><path d="M644.567,485.416c-0.062,-0.547 -0.093,-1.097 -0.093,-1.647c-0,-7.991 6.575,-14.567 14.567,-14.567c7.408,-0 13.696,5.652 14.484,13.018c0.055,0.514 0.083,1.031 0.083,1.549c-0,7.991 -6.576,14.567 -14.567,14.567c-7.372,-0 -13.64,-5.596 -14.474,-12.92" style="fill:#fff;fill-rule:nonzero;"/><path d="M608.363,500.182c6.119,-2.37 31.594,-14.274 36.204,-14.766c0.348,3.146 1.712,6.095 3.883,8.398c-6.83,2.925 -29.602,12.27 -37.058,16.706c-0.168,0.1 -0.609,1.494 -0.652,1.857c-0.097,-5.237 -0.54,-7.308 -2.377,-12.195" style="fill:#ff5ba0;fill-rule:nonzero;"/></svg>
